<svg width="158" height="25" viewBox="0 0 158 25" fill="none" xmlns="http://www.w3.org/2000/svg">
<g filter="url(#filter0_d_4632_11208)">
<path d="M78.693 16.3741H73.573V2.68611H78.693V16.3741ZM74.073 15.8741H78.193V3.18611H74.073V15.8741ZM85.817 16.3741H80.8V2.68611H91.282C92.7836 2.56451 94.279 2.98608 95.496 3.87411C96.0199 4.35342 96.426 4.9473 96.6825 5.6094C96.9391 6.27151 97.0392 6.98394 96.975 7.69111C97.0498 8.91308 96.6609 10.1183 95.886 11.0661C94.969 12.1181 93.443 12.6601 91.351 12.6791C90.824 12.6931 86.875 12.6791 85.82 12.6791L85.817 16.3741ZM81.297 15.8741H85.317V12.1741H85.568C85.619 12.1741 90.746 12.1901 91.339 12.1741C93.288 12.1571 94.689 11.6741 95.508 10.7311C96.1978 9.87356 96.5404 8.78826 96.468 7.69011C96.5295 7.05648 96.4442 6.4172 96.2188 5.82185C95.9933 5.2265 95.6338 4.69108 95.168 4.25711C94.0396 3.44721 92.659 3.06704 91.275 3.18511H81.3L81.297 15.8741ZM90.22 9.60411H85.283V5.87811H90.253C90.6053 5.82943 90.9642 5.87055 91.2963 5.99764C91.6285 6.12474 91.9232 6.33369 92.153 6.60511C92.3615 6.95205 92.4598 7.35409 92.435 7.75811C92.4537 8.13321 92.3727 8.50658 92.2 8.84011C91.9629 9.12599 91.6562 9.34606 91.3094 9.47916C90.9627 9.61226 90.5875 9.65391 90.22 9.60011V9.60411ZM85.783 9.10411H90.22C91.04 9.10411 91.548 8.93311 91.773 8.58111C91.8969 8.32526 91.953 8.04187 91.936 7.75811C91.9579 7.46017 91.8933 7.16225 91.75 6.90011L91.744 6.89111C91.506 6.54111 91.033 6.37811 90.253 6.37811H85.783V9.10411ZM106.1 16.5761C101.61 16.5761 98.93 15.4611 97.909 13.1681C97.7419 12.7252 97.6285 12.2639 97.571 11.7941L97.527 11.5061H102.869L102.904 11.7161C102.945 11.9293 103.036 12.13 103.168 12.3021C103.379 12.5571 104.083 12.9851 106.419 12.9851C109.227 12.9851 109.227 12.4921 109.227 12.2271C109.227 11.7801 108.902 11.6271 106.612 11.3831L106.177 11.3421C105.315 11.2611 104.225 11.1581 103.727 11.1151C99.527 10.7351 97.652 9.43011 97.652 6.88511C97.652 4.21211 100.843 2.48511 105.782 2.48511C109.811 2.48511 112.407 3.54711 113.496 5.64411C113.754 6.13189 113.928 6.6601 114.009 7.20611L114.044 7.48711H108.696L108.674 7.26111C108.653 7.08449 108.578 6.9188 108.458 6.78711C108.258 6.51911 107.626 6.07611 105.664 6.07611C103.255 6.07611 102.923 6.38411 102.923 6.71611C102.923 7.15911 103.684 7.31611 106.123 7.57711C107.14 7.66011 108.775 7.82811 109.335 7.89611C112.856 8.27811 114.427 9.55111 114.427 12.0251C114.428 14.1001 112.983 16.5761 106.1 16.5761ZM98.111 12.0061C98.1611 12.3359 98.2473 12.6591 98.368 12.9701C99.298 15.0591 101.828 16.0761 106.1 16.0761C109.672 16.0761 113.931 15.3761 113.931 12.0251C113.931 9.83211 112.541 8.74611 109.282 8.39311C108.722 8.32511 107.097 8.15811 106.082 8.07411C103.482 7.79211 102.425 7.64211 102.425 6.71611C102.425 5.75811 103.564 5.57611 105.666 5.57611C107.327 5.57611 108.4 5.87611 108.855 6.48111C108.979 6.63016 109.073 6.80206 109.131 6.98711H113.465C113.378 6.60036 113.24 6.2268 113.055 5.87611C112.055 3.95711 109.612 2.98511 105.784 2.98511C101.149 2.98511 98.154 4.51611 98.154 6.88511C98.154 9.14511 99.835 10.2611 103.773 10.6171C104.273 10.6601 105.362 10.7631 106.226 10.8451L106.664 10.8861C108.791 11.1101 109.729 11.2501 109.729 12.2271C109.729 13.2791 108.516 13.4851 106.421 13.4851C104.483 13.4851 103.259 13.1941 102.786 12.6211C102.64 12.4384 102.53 12.2297 102.462 12.0061H98.111ZM123.927 16.5591C118.707 16.5591 115.827 14.4481 115.827 10.6141V2.68611H120.879V10.6141C120.879 11.9291 122.056 12.6831 124.107 12.6831C126.067 12.6831 127.284 11.8961 127.284 10.6311V2.68611H132.284V11.0341C132.289 14.5451 129.24 16.5591 123.924 16.5591H123.927ZM116.327 3.18611V10.6141C116.327 15.3521 121.085 16.0591 123.927 16.0591C126.865 16.0591 131.792 15.4061 131.792 11.0341V3.18611H127.792V10.6311C127.792 12.1811 126.348 13.1831 124.115 13.1831C121.781 13.1831 120.387 12.2231 120.387 10.6141V3.18611H116.327ZM153.472 16.3741H148.704V10.1941L146 16.3741H141.841L139.165 10.2061V16.3741H134.38V2.68611H140.674L143.944 10.2331L147.372 2.68611H153.478L153.472 16.3741ZM149.204 15.8741H152.972V3.18611H147.69L143.928 11.4651L140.342 3.18611H134.876V15.8741H138.661V7.80011L142.161 15.8771H145.661L149.198 7.81211L149.204 15.8741ZM9.054 2.93611H4.5V16.1241H17.084V12.6131H9.054V2.93611ZM26.276 2.63611C20.463 2.63611 17.406 5.39111 17.406 9.43611C17.406 14.0061 20.615 16.3241 26.276 16.3241C32.508 16.3241 35.129 13.6361 35.129 9.43611C35.129 5.17111 32.172 2.63411 26.276 2.63411V2.63611ZM26.259 6.06311C26.6547 6.06125 27.0502 6.08429 27.443 6.13211L22.352 11.2231C22.1111 10.6782 21.9936 10.0867 22.008 9.49111C22.008 7.42211 23.05 6.06111 26.259 6.06111V6.06311ZM26.276 12.9511C25.8947 12.9528 25.5137 12.9314 25.135 12.8871L30.235 7.78711C30.4669 8.32301 30.5779 8.90344 30.56 9.48711C30.56 11.5001 29.6 12.9491 26.276 12.9491V12.9511ZM44.152 11.1511H48.839C48.77 11.4764 48.6262 11.7811 48.419 12.0411C47.4473 12.8327 46.2072 13.2179 44.958 13.1161C44.3292 13.1834 43.6934 13.1147 43.0935 12.9147C42.4936 12.7148 41.9436 12.3882 41.481 11.9571C41.0071 11.262 40.782 10.4272 40.842 9.58811C40.7653 8.70885 41.0101 7.83163 41.531 7.11911C42.186 6.37911 43.295 6.06011 44.925 6.06011C45.9621 5.97424 46.9979 6.24059 47.865 6.81611C48.1383 7.03319 48.3426 7.32502 48.453 7.65611H52.8C52.7684 7.11058 52.6372 6.57544 52.413 6.07711C51.372 3.96011 48.952 2.70011 44.837 2.70011C41.258 2.70011 38.856 3.79211 37.529 5.43911C36.6526 6.62847 36.2027 8.07855 36.252 9.55511C36.1953 11.0651 36.6336 12.5522 37.5 13.7901C38.811 15.4901 41.146 16.3261 43.952 16.3261C45.8175 16.4562 47.6703 15.9337 49.193 14.8481L49.311 16.1241H52.922V8.31211H44.152V11.1511ZM63.171 2.63311C57.359 2.63311 54.301 5.38811 54.301 9.43311C54.301 14.0031 57.509 16.3211 63.171 16.3211C69.404 16.3211 72.025 13.6331 72.025 9.43311C72.025 5.17111 69.068 2.63411 63.171 2.63411V2.63311ZM63.155 6.06011C63.5403 6.05897 63.9253 6.08101 64.308 6.12611L59.237 11.2001C59.0036 10.6612 58.89 10.0782 58.904 9.49111C58.9 7.42211 59.946 6.06111 63.155 6.06111V6.06011ZM63.171 12.9481C62.7796 12.9498 62.3885 12.927 62 12.8801L67.117 7.76211C67.3577 8.30514 67.4729 8.89543 67.454 9.48911C67.456 11.5001 66.5 12.9491 63.171 12.9491V12.9481Z" fill="#B4B7C9"/>
</g>
<defs>
<filter id="filter0_d_4632_11208" x="-1" y="0" width="160" height="27" filterUnits="userSpaceOnUse" color-interpolation-filters="sRGB">
<feFlood flood-opacity="0" result="BackgroundImageFix"/>
<feColorMatrix in="SourceAlpha" type="matrix" values="0 0 0 0 0 0 0 0 0 0 0 0 0 0 0 0 0 0 127 0" result="hardAlpha"/>
<feOffset dy="4"/>
<feGaussianBlur stdDeviation="2"/>
<feComposite in2="hardAlpha" operator="out"/>
<feColorMatrix type="matrix" values="0 0 0 0 0 0 0 0 0 0 0 0 0 0 0 0 0 0 0.25 0"/>
<feBlend mode="normal" in2="BackgroundImageFix" result="effect1_dropShadow_4632_11208"/>
<feBlend mode="normal" in="SourceGraphic" in2="effect1_dropShadow_4632_11208" result="shape"/>
</filter>
</defs>
</svg>
